<svg width="14" height="14" viewBox="0 0 14 14" fill="none" xmlns="http://www.w3.org/2000/svg">
<g clip-path="url(#clip0)">
<path d="M13.1 12.7L10.1 9.7C11 8.7 11.6 7.3 11.6 5.8C11.6 2.6 9 0 5.8 0C2.6 0 0 2.6 0 5.8C0 9 2.6 11.6 5.8 11.6C6.9 11.6 8 11.3 8.9 10.7L11.9 13.8C12.1 14 12.3 14 12.5 14C12.7 14 12.9 13.9 13.1 13.8C13.3 13.4 13.3 12.9 13.1 12.7ZM1.6 5.8C1.6 3.5 3.5 1.6 5.8 1.6C8.1 1.6 10 3.5 10 5.8C10 8.1 8.1 10 5.8 10C3.5 10 1.6 8.1 1.6 5.8Z" fill="black"/>
</g>
<defs>
<clipPath id="clip0">
<rect width="13.3" height="14" fill="white"/>
</clipPath>
</defs>
</svg>
