<svg width="800" height="108" viewBox="0 0 800 108" fill="none" xmlns="http://www.w3.org/2000/svg">
<g clip-path="url(#clip0)">
<path d="M548.205 51.7327C548.205 77.3429 532.308 94.2457 513.333 94.2457C488.205 94.2457 471.795 76.3185 471.795 48.1473C471.795 23.0492 488.718 6.14646 506.667 6.14646C533.846 6.65866 548.205 28.6835 548.205 51.7327ZM301.539 100.392C303.077 100.392 304.615 99.88 304.615 97.3189L305.128 83.4894V19.4638C305.128 13.3173 307.692 6.65866 314.872 6.65866C316.41 6.65866 316.41 3.58543 314.872 3.58543L306.667 4.09764H297.436L283.59 3.58543C282.564 3.58543 282.051 6.65866 283.59 6.65866C293.333 6.65866 295.898 13.3173 295.898 19.4638V76.3185L246.154 24.0736L228.718 4.09764C227.692 3.07323 226.667 2.56102 225.128 3.58543C223.59 4.60984 224.103 6.14646 224.103 6.65866V84.0016C224.103 90.1481 221.539 96.8067 214.359 96.8067C212.821 96.8067 212.821 99.88 214.359 99.88L222.564 99.3677H231.282L245.128 99.88C246.154 99.88 246.667 96.8067 245.128 96.8067C235.385 96.8067 232.821 90.1481 232.821 84.0016V30.7323L285.641 86.5626L298.462 99.88L301.539 100.392ZM169.744 100.392C170.769 100.392 171.282 97.3189 169.744 97.3189C161.026 97.3189 158.974 90.6603 158.974 84.5138V18.9516C158.974 11.7807 161.539 6.14646 167.18 6.14646C168.718 6.14646 168.718 3.07323 167.18 3.07323L157.436 3.58543H145.641L135.897 3.07323C134.872 3.07323 134.359 6.14646 135.897 6.14646C141.539 6.14646 144.103 11.2685 144.103 18.9516V85.026C144.103 91.1725 141.539 97.8311 133.333 97.8311C131.795 97.8311 131.795 100.904 133.333 100.904L145.641 100.392H169.744ZM86.6667 102.441C91.7949 102.441 94.8718 101.417 98.9744 99.3677C99.4872 98.8555 99.4872 96.8067 97.9488 96.8067H96.9231C89.7436 96.8067 78.9744 88.6114 72.3077 81.4406L36.9231 46.0984L62.5641 20.4882C72.8205 10.2441 77.4359 7.68307 86.1539 6.14646C87.6923 5.63425 87.6923 3.07323 86.1539 3.07323L73.8462 3.58543H69.7436L60.5129 3.07323C58.9744 3.07323 58.4616 3.58543 58.4616 4.09764C58.4616 5.63425 60.5129 6.14646 60.5129 9.21969C60.5129 10.7563 60 12.2929 56.9231 15.3661L26.6667 44.0496V18.4394C26.6667 12.2929 29.2308 5.63425 37.4359 5.63425C38.9744 5.63425 38.9744 2.56102 37.4359 2.56102L25.1282 3.07323H13.3334L1.02567 2.56102C3.1352e-05 2.56102 -0.512789 5.63425 1.02567 5.63425C9.74362 5.63425 11.7949 12.2929 11.7949 18.4394V84.5138C11.7949 90.6603 9.2308 97.3189 1.02567 97.3189C-0.512789 97.3189 -0.512789 100.392 1.02567 100.392L13.3334 99.88H25.1282L37.4359 100.392C38.4616 100.392 38.9744 97.3189 37.4359 97.3189C28.718 97.3189 26.6667 90.6603 26.6667 84.5138V54.8059L59.4872 89.1236C70.7693 100.904 78.4616 102.441 86.6667 102.441ZM396.923 100.392C397.949 100.392 398.462 97.3189 396.923 97.3189C385.641 97.3189 384.615 90.6603 384.615 84.5138V52.2449L397.436 51.7327C408.718 51.2205 411.282 53.2693 411.795 60.9524C411.795 61.9768 412.821 62.489 413.846 62.489C414.872 62.489 415.385 61.9768 415.385 60.9524L415.898 49.6839L417.436 37.9032C417.436 36.8788 414.359 36.3665 414.359 37.391C413.846 42.513 410.257 45.074 405.641 45.074H384.615V11.2685L401.026 10.2441C411.795 9.21969 414.872 11.7807 415.385 20.4882C415.385 21.5126 416.41 22.0248 417.436 22.0248C418.462 22.0248 418.974 21.5126 418.974 20.4882L419.487 10.2441L420.513 3.07323C420.513 2.04882 418.974 2.04882 418.462 2.04882L410.257 3.07323H371.282L358.974 2.56102C357.949 2.56102 357.436 5.63425 358.974 5.63425C367.692 5.63425 369.744 12.2929 369.744 18.4394V84.5138C369.744 90.6603 367.18 97.3189 358.974 97.3189C357.436 97.3189 357.436 100.392 358.974 100.392L371.282 99.88H383.077L396.923 100.392ZM787.18 102.441C792.308 102.441 795.385 101.417 799.487 99.3677C800 98.8555 800 96.8067 798.462 96.8067H797.436C790.257 96.8067 779.487 88.6114 772.821 81.4406L737.436 45.5862L760 23.0492C772.821 10.2441 776.41 7.17087 788.205 5.12205C789.744 4.60984 789.744 2.04882 788.205 2.04882L774.359 3.07323H770.256L761.026 2.56102C759.487 2.56102 758.974 3.07323 758.974 3.58543C758.974 5.12205 761.026 5.63425 761.026 8.70748C761.026 10.2441 760.513 11.7807 757.436 14.8539L727.692 44.0496V18.4394C727.692 12.2929 730.257 5.63425 738.462 5.63425C740 5.63425 740 2.56102 738.462 2.56102L726.154 3.07323H714.359L702.051 2.56102C701.026 2.56102 700.513 5.63425 702.051 5.63425C710.769 5.63425 712.821 12.2929 712.821 18.4394V84.5138C712.821 90.6603 710.256 97.3189 702.051 97.3189C700.513 97.3189 700.513 100.392 702.051 100.392L714.359 99.88H726.154L738.462 100.392C739.487 100.392 740 97.3189 738.462 97.3189C729.744 97.3189 727.692 90.6603 727.692 84.5138V54.8059L760.513 89.1236C771.282 100.904 778.974 102.441 787.18 102.441ZM662.051 100.392L663.59 78.8795C663.59 77.8551 661.539 77.3429 661.026 78.8795C656.41 89.1236 645.128 94.7579 636.41 94.7579C626.667 94.7579 622.564 89.6359 622.564 80.4162V18.4394C622.564 12.2929 625.128 5.63425 633.333 5.63425C634.872 5.63425 634.872 2.56102 633.333 2.56102L621.026 3.07323H609.231L596.923 2.56102C595.898 2.56102 595.385 5.63425 596.923 5.63425C605.641 5.63425 607.692 12.2929 607.692 18.4394V84.5138C607.692 90.6603 605.128 97.3189 596.923 97.3189C595.385 97.3189 595.385 100.392 596.923 100.392L609.231 99.88H648.205L662.051 100.392ZM455.898 55.3181C455.898 79.3918 482.051 101.929 510.257 101.929C535.898 101.929 563.59 82.9772 563.59 46.6106C563.59 23.0492 536.923 0 509.231 0C483.077 0 455.898 23.5614 455.898 55.3181Z" fill="black"/>
</g>
<defs>
<clipPath id="clip0">
<rect width="800" height="107.563" fill="white"/>
</clipPath>
</defs>
</svg>
